<svg width="100" height="100" viewBox="0 0 100 100" fill="none" xmlns="http://www.w3.org/2000/svg">
  <!-- Organic Green Background Blob -->
  <path d="M50 24 C 65 24, 76 35, 76 50 C 76 65, 65 76, 50 76 C 35 76, 24 65, 24 50 C 24 35, 35 24, 50 24 Z" 
        fill="#86efac" fill-opacity="0.8" />
  
  <!-- Hand-drawn Star (Continuous heavy stroke) -->
  <path d="M50 12 
           C 54 12, 58 32, 62 36
           C 66 40, 88 42, 88 46
           C 88 50, 68 62, 64 66
           C 60 70, 66 90, 62 92
           C 58 94, 52 78, 50 74
           C 48 78, 42 94, 38 92
           C 34 90, 40 70, 36 66
           C 32 62, 12 50, 12 46
           C 12 42, 34 40, 38 36
           C 42 32, 46 12, 50 12 Z"
        stroke="#1f2937" 
        stroke-width="5" 
        stroke-linecap="round" 
        stroke-linejoin="round"
        fill="none" />
        
  <!-- Dollar Sign -->
  <path d="M50 32 V68 M38 42 C 34 32, 60 30, 62 42 C 64 54, 38 56, 40 66 C 42 74, 62 70, 62 62" 
        stroke="#1f2937" 
        stroke-width="5" 
        stroke-linecap="round" 
        stroke-linejoin="round" />
</svg>
